<svg width="40" height="40" viewBox="0 0 40 40" fill="none" xmlns="http://www.w3.org/2000/svg">
<rect width="40" height="40" fill="#BAE0FF"/>
<g clip-path="url(#clip0_91_4101)">
<path d="M26.0909 24.4227C25.7593 23.6372 25.2781 22.9238 24.6741 22.3221C24.0719 21.7186 23.3586 21.2375 22.5735 20.9053C22.5665 20.9018 22.5594 20.9 22.5524 20.8965C23.6475 20.1055 24.3594 18.817 24.3594 17.3633C24.3594 14.9551 22.4082 13.0039 20 13.0039C17.5918 13.0039 15.6407 14.9551 15.6407 17.3633C15.6407 18.817 16.3526 20.1055 17.4477 20.8982C17.4407 20.9018 17.4336 20.9035 17.4266 20.907C16.6391 21.2393 15.9325 21.7156 15.326 22.3238C14.7226 22.926 14.2415 23.6393 13.9092 24.4244C13.5828 25.193 13.4068 26.0171 13.3907 26.852C13.3902 26.8707 13.3935 26.8894 13.4003 26.9068C13.4072 26.9243 13.4175 26.9402 13.4306 26.9537C13.4437 26.9671 13.4594 26.9778 13.4767 26.9851C13.4939 26.9923 13.5125 26.9961 13.5313 26.9961H14.586C14.6633 26.9961 14.7248 26.9346 14.7266 26.859C14.7618 25.502 15.3067 24.2311 16.27 23.2678C17.2666 22.2711 18.5903 21.7227 20 21.7227C21.4098 21.7227 22.7334 22.2711 23.7301 23.2678C24.6934 24.2311 25.2383 25.502 25.2735 26.859C25.2752 26.9363 25.3368 26.9961 25.4141 26.9961H26.4688C26.4876 26.9961 26.5061 26.9923 26.5234 26.9851C26.5407 26.9778 26.5564 26.9671 26.5695 26.9537C26.5826 26.9402 26.5929 26.9243 26.5997 26.9068C26.6066 26.8894 26.6099 26.8707 26.6094 26.852C26.5918 26.0117 26.4178 25.1943 26.0909 24.4227ZM20 20.3867C19.1932 20.3867 18.4338 20.0721 17.8625 19.5008C17.2913 18.9295 16.9766 18.1701 16.9766 17.3633C16.9766 16.5564 17.2913 15.7971 17.8625 15.2258C18.4338 14.6545 19.1932 14.3398 20 14.3398C20.8069 14.3398 21.5663 14.6545 22.1375 15.2258C22.7088 15.7971 23.0235 16.5564 23.0235 17.3633C23.0235 18.1701 22.7088 18.9295 22.1375 19.5008C21.5663 20.0721 20.8069 20.3867 20 20.3867Z" fill="#1677FF"/>
</g>
<defs>
<clipPath id="clip0_91_4101">
<rect width="18" height="18" fill="white" transform="translate(11 11)"/>
</clipPath>
</defs>
</svg>
